# xmcd
# Copyright (C) 1995-1998 Ti Kan
#
# Track frame offsets:
#       150
#       89891
#       151953
#       222872
#
# Disc length: 3540 seconds
#
# Revision: 0
# Processed by: cddbd v1.5.2PL0 Copyright (c) Steve Scherf et al.
# Submitted via: CD-Transfer v1.0
#
DISCID=320dd204
DTITLE=Friday Night Life Mixed By Dj René - 
DYEAR=1900
DGENRE=
TTITLE0=House 2
TTITLE1=Raggaton
TTITLE2=House 3
TTITLE3=Rnb
EXTD=
EXTT0=
EXTT1=
EXTT2=
EXTT3=
PLAYORDER=
